<?xml version="1.0" encoding="utf-8"?>
<!-- Generator: Adobe Illustrator 16.0.0, SVG Export Plug-In . SVG Version: 6.00 Build 0)  -->
<!DOCTYPE svg PUBLIC "-//W3C//DTD SVG 1.1//EN" "http://www.w3.org/Graphics/SVG/1.1/DTD/svg11.dtd">
<svg version="1.1" id="Layer_1" xmlns="http://www.w3.org/2000/svg" xmlns:xlink="http://www.w3.org/1999/xlink" x="0px" y="0px"
	 width="212.795px" height="220.59px" viewBox="0 0 212.795 220.59" enable-background="new 0 0 212.795 220.59"
	 xml:space="preserve">
<path fill="#52C0F5" d="M168.843,202.009H45.986c-2.704,0-4.895-2.191-4.895-4.894V27.474c0-2.702,2.19-4.894,4.895-4.894h122.857
	c2.703,0,4.895,2.192,4.895,4.894v169.641C173.738,199.818,171.546,202.009,168.843,202.009"/>
<path fill="#10003B" d="M168.843,204.009H45.985c-3.801,0-6.894-3.093-6.894-6.894V27.474c0-3.801,3.093-6.894,6.894-6.894h122.858
	c3.801,0,6.894,3.093,6.894,6.894v169.641C175.737,200.916,172.644,204.009,168.843,204.009 M45.985,24.58
	c-1.596,0-2.894,1.298-2.894,2.894v169.641c0,1.596,1.298,2.894,2.894,2.894h122.858c1.596,0,2.894-1.298,2.894-2.894V27.474
	c0-1.596-1.298-2.894-2.894-2.894H45.985z"/>
<path fill="#EAEDF2" d="M152.61,65.717H62.214c-2.811,0-5.088-2.278-5.088-5.089V47.392c0-2.812,2.277-5.09,5.088-5.09h90.396
	c2.812,0,5.089,2.278,5.089,5.09v13.236C157.699,63.439,155.421,65.717,152.61,65.717"/>
<path fill="#10003B" d="M152.611,67.717H62.214c-3.909,0-7.089-3.18-7.089-7.089V47.392c0-3.909,3.18-7.09,7.089-7.09h90.396
	c3.908,0,7.088,3.181,7.088,7.09v13.236C159.699,64.537,156.519,67.717,152.611,67.717 M62.214,44.302
	c-1.703,0-3.089,1.386-3.089,3.09v13.236c0,1.703,1.386,3.089,3.089,3.089h90.396c1.703,0,3.088-1.386,3.088-3.089V47.392
	c0-1.704-1.385-3.09-3.088-3.09H62.214z"/>
<rect x="57.125" y="89.08" fill="#FE7058" width="24.104" height="22.282"/>
<path fill="#10003B" d="M81.228,113.362H57.126c-1.105,0-2-0.896-2-2V89.08c0-1.105,0.895-2,2-2h24.102c1.105,0,2,0.895,2,2v22.282
	C83.228,112.466,82.333,113.362,81.228,113.362 M59.126,109.362h20.103V91.08H59.126V109.362z"/>
<rect x="95.362" y="89.08" fill="#4BD6C1" width="24.104" height="22.282"/>
<path fill="#10003B" d="M119.465,113.362H95.363c-1.104,0-2-0.896-2-2V89.08c0-1.105,0.896-2,2-2h24.103c1.104,0,2,0.895,2,2v22.282
	C121.465,112.466,120.57,113.362,119.465,113.362 M97.363,109.362h20.104V91.08H97.363V109.362z"/>
<rect x="133.6" y="89.08" fill="#FFD161" width="24.103" height="22.282"/>
<path fill="#10003B" d="M157.703,113.362H133.6c-1.104,0-2-0.896-2-2V89.08c0-1.105,0.896-2,2-2h24.103c1.104,0,2,0.895,2,2v22.282
	C159.703,112.466,158.807,113.362,157.703,113.362 M135.6,109.362h20.103V91.08H135.6V109.362z"/>
<rect x="57.125" y="124.542" fill="#34495E" width="24.104" height="22.281"/>
<path fill="#10003B" d="M81.228,148.823H57.126c-1.105,0-2-0.896-2-2v-22.282c0-1.104,0.895-2,2-2h24.102c1.105,0,2,0.896,2,2
	v22.282C83.228,147.927,82.333,148.823,81.228,148.823 M59.126,144.823h20.103v-18.281H59.126V144.823z"/>
<rect x="95.362" y="124.542" fill="#34495E" width="24.104" height="22.281"/>
<path fill="#10003B" d="M119.465,148.823H95.363c-1.104,0-2-0.896-2-2v-22.282c0-1.104,0.896-2,2-2h24.103c1.104,0,2,0.896,2,2
	v22.282C121.465,147.927,120.57,148.823,119.465,148.823 M97.363,144.823h20.104v-18.281H97.363V144.823z"/>
<rect x="133.603" y="124.545" fill="#FE7058" width="24.096" height="57.743"/>
<path fill="#10003B" d="M157.699,184.288h-24.096c-1.104,0-2-0.896-2-2v-57.744c0-1.104,0.896-2,2-2h24.096c1.104,0,2,0.896,2,2
	v57.744C159.699,183.392,158.803,184.288,157.699,184.288 M135.603,180.288h20.096v-53.743h-20.096V180.288z"/>
<rect x="57.125" y="160.004" fill="#34495E" width="24.104" height="22.281"/>
<path fill="#10003B" d="M81.228,184.285H57.126c-1.105,0-2-0.896-2-2v-22.282c0-1.104,0.895-2,2-2h24.102c1.105,0,2,0.896,2,2
	v22.282C83.228,183.389,82.333,184.285,81.228,184.285 M59.126,180.285h20.103v-18.281H59.126V180.285z"/>
<rect x="95.362" y="160.004" fill="#34495E" width="24.104" height="22.281"/>
<path fill="#10003B" d="M119.465,184.285H95.363c-1.104,0-2-0.896-2-2v-22.282c0-1.104,0.896-2,2-2h24.103c1.104,0,2,0.896,2,2
	v22.282C121.465,183.389,120.57,184.285,119.465,184.285 M97.363,180.285h20.104v-18.281H97.363V180.285z"/>
</svg>
